# xmcd CD database file
#
# Track frame offsets:
#	150
#	14322
#	32140
#	48872
#	65812
#	77705
#	89100
#	102345
#	119882
#	133655
#	150147
#	167837
#	178112
#	192784
#
# Disc length: 2714 seconds
#
# Revision: 0
# Processed by: cddbd v1.5.2PL0 Copyright (c) Steve Scherf et al.
# Submitted via: CDex 1.85
#
DISCID=be0a980e
DTITLE=Plansee Big Band - Simply In The Mood
DYEAR=1996
DGENRE=Jazz
TTITLE0=New York
TTITLE1=Yesterday/Michelle
TTITLE2=In The Mood
TTITLE3=Can You Feel The Love
TTITLE4=Wipe Out
TTITLE5=Somewhere
TTITLE6=Sam's Boogie
TTITLE7=From A Distance
TTITLE8=Big Band Jive
TTITLE9=Can't Help Falling Love
TTITLE10=Can't Take My Eyes Off You
TTITLE11=Boogie Woogie Bugle Boy
TTITLE12=Just In The Way
TTITLE13=Y.M.C.A.
EXTD=YEAR: 1996
EXTT0=
EXTT1=
EXTT2=
EXTT3=
EXTT4=
EXTT5=
EXTT6=
EXTT7=
EXTT8=
EXTT9=
EXTT10=
EXTT11=
EXTT12=
EXTT13=
PLAYORDER=
